# Blender 4.4.3
# www.blender.org
o Circle
v 0.000000 0.000000 1.000000
v 0.235114 0.000000 0.323607
v 0.951057 0.000000 0.309017
v 0.380423 0.000000 -0.123607
v 0.587785 0.000000 -0.809017
v -0.000000 0.000000 -0.400000
v -0.587785 0.000000 -0.809017
v -0.380423 0.000000 -0.123607
v -0.951057 0.000000 0.309017
v -0.235114 0.000000 0.323607
v 0.000000 0.200000 1.000000
v 0.235114 0.200000 0.323607
v 0.951057 0.200000 0.309017
v 0.380423 0.200000 -0.123607
v 0.587785 0.200000 -0.809017
v -0.000000 0.200000 -0.400000
v -0.587785 0.200000 -0.809017
v -0.380423 0.200000 -0.123607
v -0.951057 0.200000 0.309017
v -0.235114 0.200000 0.323607
vn -0.0000 -1.0000 -0.0000
vn -0.0000 1.0000 -0.0000
vn 0.9572 -0.0000 0.2896
vn 0.9446 -0.0000 0.3283
vn -0.6041 -0.0000 -0.7969
vn -0.5712 -0.0000 -0.8208
vn 0.0204 -0.0000 0.9998
vn -0.0204 -0.0000 0.9998
vn 0.5712 -0.0000 -0.8208
vn 0.6041 -0.0000 -0.7969
vn -0.9446 -0.0000 0.3283
vn -0.9572 -0.0000 0.2896
vt 0.000000 0.000000
s 0
f 2/1/1 8/1/1 4/1/1
f 12/1/2 16/1/2 20/1/2
f 5/1/3 14/1/3 4/1/3
f 2/1/4 11/1/4 1/1/4
f 9/1/5 18/1/5 8/1/5
f 6/1/6 15/1/6 5/1/6
f 3/1/7 12/1/7 2/1/7
f 10/1/8 19/1/8 9/1/8
f 7/1/9 16/1/9 6/1/9
f 4/1/10 13/1/10 3/1/10
f 1/1/11 20/1/11 10/1/11
f 8/1/12 17/1/12 7/1/12
f 2/1/1 1/1/1 10/1/1
f 10/1/1 9/1/1 8/1/1
f 8/1/1 7/1/1 6/1/1
f 6/1/1 5/1/1 4/1/1
f 4/1/1 3/1/1 2/1/1
f 2/1/1 10/1/1 8/1/1
f 8/1/1 6/1/1 4/1/1
f 12/1/2 13/1/2 14/1/2
f 14/1/2 15/1/2 16/1/2
f 16/1/2 17/1/2 18/1/2
f 18/1/2 19/1/2 20/1/2
f 20/1/2 11/1/2 12/1/2
f 12/1/2 14/1/2 16/1/2
f 16/1/2 18/1/2 20/1/2
f 5/1/3 15/1/3 14/1/3
f 2/1/4 12/1/4 11/1/4
f 9/1/5 19/1/5 18/1/5
f 6/1/6 16/1/6 15/1/6
f 3/1/7 13/1/7 12/1/7
f 10/1/8 20/1/8 19/1/8
f 7/1/9 17/1/9 16/1/9
f 4/1/10 14/1/10 13/1/10
f 1/1/11 11/1/11 20/1/11
f 8/1/12 18/1/12 17/1/12
